<svg width="1558" height="321" viewBox="0 0 1558 321" fill="none" xmlns="http://www.w3.org/2000/svg">
<path d="M280.986 152.543C280.986 156.398 284.329 159.515 288.444 159.515H317.232C322.076 159.515 326 155.842 326 151.31V7.37971C326 3.29916 322.467 0 318.108 0H10.9821C5.47804 0 1.00706 4.16736 0.989693 9.31579L0 311.667C0 314.141 1.0331 316.52 2.90831 318.265C4.78352 320.01 7.30984 321 9.9577 321H315.469C321.286 321 326 316.59 326 311.155V287.722C326 282.851 321.781 278.901 316.572 278.901H46.2986V42.3335H280.978V152.534L280.986 152.543Z" fill="black"/>
<path d="M235.97 139.349C236.658 120.417 225.476 102.855 207.367 94.4445L204.445 93.0916C192.988 87.7748 180.379 85 167.599 85H101.892C98.463 85 95.1712 86.284 92.7475 88.5675C90.3238 90.8511 88.983 93.9447 89.0002 97.1675L89.8768 225.789C89.9112 231.441 94.8102 236 100.844 236H127.771C132.481 236 136.323 232.467 136.417 228.055L137.268 189.329H154.758L185.098 233.199C186.31 234.949 188.372 236 190.598 236H221.479C225.02 236 228.278 234.19 229.979 231.286C231.681 228.382 231.57 224.832 229.67 222.031L203.104 182.737L204.17 182.323C222.846 175.085 235.282 158.281 235.97 139.349ZM187.633 140.254C187.582 140.667 187.616 141.331 187.513 141.727C187.565 142.365 187.057 143.166 186.903 143.813C186.731 144.528 186.843 144.287 186.413 144.795C186.327 145.209 185.785 145.674 185.682 146.079C185.39 147.191 184.711 147.802 183.852 148.595C183.585 148.837 183.181 149.457 182.872 149.638C182.468 150.284 182.193 150.629 181.531 150.801C181.351 150.931 180.998 151.404 180.8 151.473C180.13 152.12 179.4 152.62 178.54 153.068C176.469 154.153 174.543 154.67 172.249 154.963C169.911 155.265 167.333 155.162 164.978 155.205C162.004 155.256 158.953 155.334 155.996 155.084C155.18 155.015 153.933 155.256 153.125 155.205C152.283 155.17 151.578 155.265 150.745 155.205C149.447 155.153 145.682 155.394 144.385 155.205C140.104 154.593 137.543 156.187 137.414 154.343C137.234 151.654 137.311 147.018 137.294 144.537C137.268 141.219 137.165 138.729 137.371 135.514C137.56 132.653 137.397 129.706 137.294 126.828C137.174 123.407 136.924 120.882 137.904 121.003C139.933 121.253 145.442 120.917 147.436 121.063C148.716 121.158 150.375 121.037 151.656 121.123C155.36 120.425 163.963 121.503 162.898 121.003C163.499 121.037 165.777 121.063 166.379 121.123C167.393 121.236 168.304 120.917 169.309 121.063C170.573 121.192 170.865 121.373 172.12 121.554C172.567 121.606 173.4 121.942 173.83 122.046C174.045 122.089 174.776 122.373 174.99 122.416C177.216 122.873 178.437 123.347 180.121 124.743C181.892 125.553 185.167 129.991 185.932 131.421C187.522 134.42 186.808 133.257 187.272 135.101C187.565 136.023 187.814 136.824 187.822 137.798C187.642 138.78 187.754 139.392 187.642 140.245L187.633 140.254Z" fill="black"/>
<path d="M282 196.431C282 191.77 285.772 188 290.432 188H312.503C317.749 188 322 192.248 322 197.495V219.866C322 224.354 318.359 228 313.869 228H289.846C285.51 228 282 224.486 282 220.155V196.439V196.431Z" fill="url(#paint0_radial_29_2950)"/>
<path d="M444.297 236V107.329H392.338V78.785H530.821V107.329H478.862V236H444.297ZM544.833 236V78.785H578.506V141.448C582.372 135.799 587.352 131.562 593.447 128.737C599.543 125.764 606.307 124.277 613.74 124.277C639.46 124.277 652.319 139.59 652.319 170.215V236H618.646V171.776C618.646 164.194 617.234 158.768 614.409 155.497C611.585 152.078 607.422 150.368 601.921 150.368C594.785 150.368 589.062 152.598 584.75 157.058C580.588 161.518 578.506 167.465 578.506 174.898V236H544.833ZM734.322 238.453C721.388 238.453 710.238 236.149 700.872 231.54C691.655 226.783 684.519 220.167 679.464 211.693C674.558 203.07 672.105 192.961 672.105 181.365C672.105 170.066 674.484 160.18 679.241 151.706C684.147 143.083 690.763 136.393 699.088 131.636C707.562 126.73 717.3 124.277 728.301 124.277C744.209 124.277 756.845 129.332 766.211 139.441C775.577 149.402 780.26 162.93 780.26 180.027V188.501H704.217C705.407 197.124 708.529 203.442 713.583 207.456C718.787 211.321 725.923 213.254 734.991 213.254C740.938 213.254 746.959 212.362 753.054 210.578C759.15 208.794 764.65 206.044 769.556 202.327L778.476 224.85C772.976 229.013 766.211 232.358 758.183 234.885C750.304 237.264 742.35 238.453 734.322 238.453ZM729.639 146.577C722.503 146.577 716.705 148.733 712.245 153.044C707.934 157.355 705.258 163.376 704.217 171.107H752.385C751.493 154.754 743.911 146.577 729.639 146.577ZM864.811 236V78.785H936.617C954.159 78.785 967.688 83.022 977.203 91.496C986.717 99.97 991.475 111.789 991.475 126.953C991.475 138.698 988.427 148.51 982.332 156.389C976.385 164.12 967.837 169.397 956.687 172.222C964.566 174.601 971.033 180.324 976.088 189.393L1001.51 236H963.377L936.171 185.825C933.941 181.811 931.19 179.061 927.92 177.574C924.649 175.939 920.784 175.121 916.324 175.121H899.376V236H864.811ZM899.376 150.145H930.373C948.956 150.145 958.248 142.712 958.248 127.845C958.248 113.127 948.956 105.768 930.373 105.768H899.376V150.145ZM1060.97 236L1004.99 78.785H1040.45L1076.58 186.271L1114.71 78.785H1139.68L1176.7 188.055L1214.17 78.785H1247.62L1191.2 236H1163.1L1126.3 131.636L1089.06 236H1060.97ZM1234.6 236L1306.85 78.785H1334.73L1406.98 236H1372.19L1357.48 201.881H1284.11L1269.61 236H1234.6ZM1320.46 115.58L1295.7 174.898H1346.1L1320.9 115.58H1320.46ZM1398.56 236L1458.55 156.389L1400.34 78.785H1440.48L1478.39 131.19L1516.08 78.785H1556.44L1498.02 156.389L1558 236H1517.64L1478.17 181.811L1439.15 236H1398.56Z" fill="black"/>
<defs>
<radialGradient id="paint0_radial_29_2950" cx="0" cy="0" r="1" gradientUnits="userSpaceOnUse" gradientTransform="translate(277.947 226.809) scale(316.803 318.631)">
<stop stop-color="#CBFC01"/>
<stop offset="0.5" stop-color="#7E7E7E"/>
<stop offset="1"/>
</radialGradient>
</defs>
</svg>
