<?xml version="1.0" encoding="UTF-8"?>
<svg id="Guides" xmlns="http://www.w3.org/2000/svg" xmlns:xlink="http://www.w3.org/1999/xlink" viewBox="0 0 432 432">
  <defs>
    <style>
      .cls-1 {
        isolation: isolate;
      }

      .cls-2 {
        fill: url(#radial-gradient);
      }
    </style>
    <radialGradient id="radial-gradient" cx="-84.01" cy="282.47" fx="-84.01" fy="282.47" r="311.52" gradientTransform="translate(391.61 537.2) scale(1.01 -.93)" gradientUnits="userSpaceOnUse">
      <stop offset="0" stop-color="#cbfc01"/>
      <stop offset=".5" stop-color="#7e7e7e"/>
      <stop offset="1" stop-color="#000"/>
    </radialGradient>
  </defs>
  <path id="R" class="cls-1" d="m272.5,189.63c.61-16.58-9.29-31.95-25.32-39.32l-2.58-1.19c-10.14-4.66-21.3-7.08-32.62-7.08h-58.17c-3.04,0-5.95,1.12-8.1,3.12s-3.34,4.71-3.32,7.53l.78,112.61c.03,4.95,4.37,8.94,9.71,8.94h23.83c4.17,0,7.57-3.09,7.66-6.95l.76-33.9h15.48l26.86,38.41c1.07,1.53,2.9,2.45,4.87,2.45h27.34c3.13,0,6.02-1.58,7.53-4.13,1.51-2.55,1.41-5.65-.27-8.1l-23.52-34.4.94-.36c16.53-6.33,27.54-21.05,28.15-37.62Zm-42.79.79c-.05.36-.02.94-.11,1.29.04.56-.4,1.26-.54,1.82-.15.62-.05.42-.43.86-.07.36-.56.77-.65,1.13-.26.98-.86,1.51-1.62,2.2-.23.21-.59.75-.87.91-.36.57-.6.86-1.19,1.02-.16.11-.47.53-.65.59-.59.57-1.24,1-2,1.39-1.84.95-3.54,1.4-5.57,1.66-2.07.27-4.35.18-6.44.21-2.63.05-5.33.11-7.95-.11-.72-.06-1.83.15-2.54.11-.75-.03-1.37.05-2.11,0-1.15-.05-4.48.16-5.63,0-3.79-.54-6.06.86-6.17-.75-.16-2.36-.09-6.41-.11-8.58-.03-2.9-.12-5.09.07-7.9.17-2.51.02-5.08-.07-7.6-.11-3-.32-5.2.54-5.1,1.79.22,6.67-.07,8.44.05,1.13.08,2.6-.02,3.73.05,3.28-.61,10.89.33,9.96-.11.54.03,2.55.05,3.08.11.9.1,1.71-.18,2.6-.05,1.12.11,1.38.27,2.49.43.39.05,1.13.34,1.51.43.19.03.84.28,1.03.32,1.97.4,3.05.81,4.54,2.04,1.57.71,4.47,4.59,5.14,5.85,1.41,2.63.78,1.61,1.19,3.22.26.81.48,1.51.49,2.36-.16.86-.06,1.4-.16,2.15Z"/>
  <g id="Green-dot">
    <path class="cls-2" d="m311.08,244.92c0-4.26,3.72-7.71,8.32-7.71h21.77c5.17,0,9.37,3.89,9.37,8.68v20.46c0,4.11-3.59,7.44-8.02,7.44h-23.69c-4.28,0-7.74-3.21-7.74-7.18v-21.69Z" vector-effect="non-scaling-stroke"/>
  </g>
  <path id="New_Rounded-square" data-name="New Rounded-square" d="m350.79,94.58v10.31h-.08v98.5c0,2.08-1.7,3.77-3.8,3.77h-32.97c-2.11,0-3.8-1.69-3.8-3.77v-98.5H105.36v205.89h242.47c1.49,0,2.71,1.2,2.71,2.68,0,9.54-3.9,18.18-10.2,24.42-6.3,6.25-15.01,10.12-24.63,10.12H93.19c-15.87,0-28.74-12.76-28.74-28.5v-6.04c0-.47.12-.91.33-1.29V94.07c0-14.58,11.92-26.41,26.63-26.41h13.95v.51h218.8c14.71,0,26.63,11.82,26.63,26.41Z"/>
</svg>