<?xml version="1.0" standalone="no"?>
<!DOCTYPE svg PUBLIC "-//W3C//DTD SVG 20010904//EN"
 "http://www.w3.org/TR/2001/REC-SVG-20010904/DTD/svg10.dtd">
<svg version="1.0" xmlns="http://www.w3.org/2000/svg"
 width="128.000000pt" height="128.000000pt" viewBox="0 0 128.000000 128.000000"
 preserveAspectRatio="xMidYMid meet">

<g transform="translate(0.000000,128.000000) scale(0.100000,-0.100000)"
fill="#000000" stroke="none">
<path d="M533 1270 c-233 -42 -420 -205 -499 -435 -24 -69 -28 -96 -28 -195 0
-99 4 -126 28 -195 70 -202 209 -341 411 -411 69 -24 96 -28 195 -28 99 0 126
4 195 28 202 70 341 209 411 411 24 69 28 96 28 195 0 99 -4 126 -28 195 -69
202 -210 343 -408 409 -87 30 -221 41 -305 26z m487 -250 c19 -19 20 -33 20
-200 l0 -181 -57 3 -58 3 -3 143 -3 142 -279 0 -280 0 0 -290 0 -290 340 0
340 0 0 -27 c0 -16 -11 -39 -27 -55 l-27 -28 -350 0 c-345 0 -350 0 -373 22
l-23 21 0 359 c0 345 1 359 20 378 19 19 33 20 380 20 347 0 361 -1 380 -20z
m-270 -212 c86 -44 102 -137 35 -201 l-33 -31 30 -43 c42 -62 36 -77 -33 -81
l-56 -3 -36 56 c-50 74 -75 75 -79 3 l-3 -53 -54 -3 c-37 -2 -57 1 -62 10 -14
21 -11 342 3 356 8 8 51 12 128 12 100 0 122 -3 160 -22z m288 -305 l3 -53
-54 0 c-58 0 -67 7 -67 55 0 49 9 56 64 53 l51 -3 3 -52z"/>
<path d="M580 695 l0 -35 49 0 c57 0 79 17 61 49 -9 17 -20 21 -60 21 l-50 0
0 -35z"/>
</g>
</svg>
