<?xml version="1.0" encoding="UTF-8"?>
<svg id="Guides" xmlns="http://www.w3.org/2000/svg" xmlns:xlink="http://www.w3.org/1999/xlink" viewBox="0 0 864 864">
  <defs>
    <style>
      .cls-1 {
        isolation: isolate;
      }

      .cls-2 {
        fill: url(#radial-gradient);
      }
    </style>
    <radialGradient id="radial-gradient" cx="231.53" cy="-1065.3" fx="231.53" fy="-1065.3" r="602.31" gradientTransform="translate(391.78 -447.36) scale(1 -.95)" gradientUnits="userSpaceOnUse">
      <stop offset="0" stop-color="#cbfc01"/>
      <stop offset=".5" stop-color="#7e7e7e"/>
      <stop offset="1" stop-color="#000"/>
    </radialGradient>
  </defs>
  <path id="R" class="cls-1" d="m556.64,395.66c1.17-32.52-17.85-62.69-48.64-77.13l-4.96-2.33c-19.48-9.14-40.92-13.9-62.66-13.9h-111.73c-5.84,0-11.43,2.21-15.55,6.13s-6.41,9.24-6.37,14.77l1.49,220.94c.07,9.71,8.39,17.55,18.65,17.55h45.78c8.01,0,14.54-6.06,14.71-13.64l1.45-66.52h29.74l51.59,75.35c2.05,3,5.57,4.81,9.35,4.81h52.51c6.02,0,11.56-3.1,14.46-8.1,2.9-4.99,2.7-11.09-.52-15.9l-45.17-67.5,1.81-.71c31.75-12.43,52.9-41.3,54.07-73.82Zm-82.2,1.56c-.09.7-.03,1.85-.21,2.53.09,1.1-.77,2.47-1.04,3.58-.3,1.22-.1.82-.83,1.68-.14.71-1.07,1.51-1.25,2.21-.49,1.92-1.65,2.97-3.12,4.32-.45.41-1.14,1.48-1.66,1.79-.69,1.12-1.15,1.7-2.29,2-.31.22-.91,1.03-1.25,1.16-1.14,1.11-2.38,1.96-3.85,2.74-3.52,1.86-6.8,2.75-10.7,3.26-3.98.52-8.36.35-12.37.42-5.06.09-10.24.22-15.28-.21-1.38-.12-3.51.29-4.88.21-1.44-.06-2.63.11-4.05,0-2.21-.09-8.61.32-10.81,0-7.27-1.05-11.64,1.68-11.85-1.47-.3-4.62-.17-12.58-.21-16.84-.05-5.69-.23-9.98.14-15.5.32-4.91.04-9.97-.14-14.92-.21-5.88-.62-10.21,1.04-10,3.44.44,12.82-.14,16.21.11,2.17.16,5-.04,7.17.11,6.3-1.2,20.93.64,19.12-.21,1.03.06,4.9.1,5.92.21,1.72.19,3.28-.35,4.99-.11,2.15.22,2.65.53,4.78.84.76.09,2.17.67,2.91.84.37.07,1.61.56,1.97.63,3.78.78,5.86,1.6,8.73,4,3.01,1.4,8.58,9.01,9.87,11.47,2.7,5.16,1.49,3.16,2.29,6.32.49,1.59.91,2.96.94,4.63-.31,1.68-.11,2.75-.31,4.21Z"/>
  <g id="Green-dot">
    <path class="cls-2" d="m630.73,504.13c0-8.36,7.15-15.13,15.98-15.13h41.81c9.94,0,17.99,7.63,17.99,17.04v40.14c0,8.06-6.9,14.59-15.41,14.59h-45.5c-8.21,0-14.87-6.31-14.87-14.08v-42.55Z" vector-effect="non-scaling-stroke"/>
  </g>
  <path id="New_Rounded-square" data-name="New Rounded-square" d="m707.01,209.18v20.23h-.16v193.25c0,4.09-3.27,7.4-7.31,7.4h-63.33c-4.05,0-7.31-3.32-7.31-7.4v-193.25H235.6v403.94h465.73c2.86,0,5.2,2.35,5.2,5.25,0,18.71-7.5,35.66-19.6,47.92-12.1,12.26-28.84,19.85-47.31,19.85H212.21c-30.49,0-55.2-25.03-55.2-55.92v-11.84c0-.92.23-1.79.64-2.53V208.18c0-28.61,22.9-51.81,51.15-51.81h26.79v.99h420.26c28.25,0,51.15,23.2,51.15,51.81Z"/>
</svg>