<?xml version="1.0" encoding="UTF-8"?>
<svg id="Guides" xmlns="http://www.w3.org/2000/svg" viewBox="0 0 234 216">
  <defs>
    <style>
      .cls-1 {
        fill: #b6b6b6;
      }

      .cls-2 {
        fill: #838383;
      }
    </style>
  </defs>
  <path id="R" class="cls-2" d="m142.9,98.12c.3-8.28-4.64-15.96-12.65-19.63l-1.29-.59c-5.06-2.33-10.64-3.54-16.29-3.54h-29.05c-1.52,0-2.97.56-4.04,1.56s-1.67,2.35-1.66,3.76l.39,56.24c.02,2.47,2.18,4.47,4.85,4.47h11.9c2.08,0,3.78-1.54,3.82-3.47l.38-16.93h7.73l13.41,19.18c.53.76,1.45,1.22,2.43,1.22h13.65c1.56,0,3.01-.79,3.76-2.06.75-1.27.7-2.82-.14-4.05l-11.74-17.18.47-.18c8.26-3.16,13.75-10.51,14.06-18.79Zm-21.37.4c-.02.18,0,.47-.05.64.02.28-.2.63-.27.91-.08.31-.03.21-.22.43-.04.18-.28.38-.32.56-.13.49-.43.76-.81,1.1-.12.11-.3.38-.43.46-.18.28-.3.43-.59.51-.08.06-.24.26-.32.29-.3.28-.62.5-1,.7-.92.47-1.77.7-2.78.83-1.03.13-2.17.09-3.22.11-1.31.02-2.66.06-3.97-.05-.36-.03-.91.07-1.27.05-.37-.02-.68.03-1.05,0-.57-.02-2.24.08-2.81,0-1.89-.27-3.03.43-3.08-.38-.08-1.18-.04-3.2-.05-4.29-.01-1.45-.06-2.54.04-3.95.08-1.25,0-2.54-.04-3.8-.05-1.5-.16-2.6.27-2.55.9.11,3.33-.04,4.22.03.56.04,1.3-.01,1.86.03,1.64-.31,5.44.16,4.97-.05.27.01,1.27.02,1.54.05.45.05.85-.09,1.3-.03.56.06.69.14,1.24.21.2.02.57.17.76.21.1.02.42.14.51.16.98.2,1.52.41,2.27,1.02.78.36,2.23,2.29,2.57,2.92.7,1.31.39.8.59,1.61.13.4.24.75.24,1.18-.08.43-.03.7-.08,1.07Z"/>
  <g id="Green-dot">
    <path class="cls-1" d="m162.17,125.73c0-2.13,1.86-3.85,4.15-3.85h10.87c2.58,0,4.68,1.94,4.68,4.34v10.22c0,2.05-1.79,3.71-4.01,3.71h-11.83c-2.14,0-3.87-1.6-3.87-3.58v-10.83Z" vector-effect="non-scaling-stroke"/>
  </g>
  <path id="New_Rounded-square" data-name="New Rounded-square" class="cls-2" d="m182,50.65v5.15h-.04v49.19c0,1.04-.85,1.88-1.9,1.88h-16.46c-1.05,0-1.9-.84-1.9-1.88v-49.19H59.43v102.82h121.09c.74,0,1.35.6,1.35,1.34,0,4.76-1.95,9.08-5.1,12.2-3.15,3.12-7.5,5.05-12.3,5.05H53.35c-7.93,0-14.35-6.37-14.35-14.24v-3.01c0-.23.06-.46.17-.64V50.4c0-7.28,5.95-13.19,13.3-13.19h6.97v.25h109.27c7.35,0,13.3,5.9,13.3,13.19Z"/>
</svg>