<?xml version="1.0" standalone="no"?>
<!DOCTYPE svg PUBLIC "-//W3C//DTD SVG 20010904//EN"
 "http://www.w3.org/TR/2001/REC-SVG-20010904/DTD/svg10.dtd">
<svg version="1.0" xmlns="http://www.w3.org/2000/svg"
 width="32.000000pt" height="32.000000pt" viewBox="0 0 32.000000 32.000000"
 preserveAspectRatio="xMidYMid meet">

<g transform="translate(0.000000,32.000000) scale(0.100000,-0.100000)"
fill="#000000" stroke="none">
<path d="M90 298 c-33 -17 -51 -35 -67 -68 -29 -56 -29 -84 -1 -140 25 -48 89
-90 138 -90 49 0 113 42 138 90 28 56 28 84 0 140 -25 48 -89 90 -138 90 -14
0 -46 -10 -70 -22z m158 -50 c7 -7 12 -29 12 -50 0 -31 -4 -38 -20 -38 -16 0
-20 7 -20 30 l0 30 -60 0 -60 0 0 -60 0 -60 81 0 c71 0 80 -2 77 -17 -3 -16
-16 -18 -98 -18 l-95 0 -3 83 c-2 53 1 89 9 98 15 18 159 20 177 2z m-48 -53
c7 -9 9 -22 5 -32 -5 -10 -7 -26 -6 -35 2 -20 -24 -25 -35 -7 -5 8 -9 7 -14
-1 -17 -28 -40 -2 -40 45 l0 45 39 0 c22 0 44 -6 51 -15z m60 -71 c0 -17 -26
-19 -36 -3 -7 12 15 31 28 23 4 -3 8 -12 8 -20z"/>
</g>
</svg>
